<?xml version="1.0" encoding="UTF-8"?>
<svg id="Layer_1" data-name="Layer 1" xmlns="http://www.w3.org/2000/svg" viewBox="0 0 1920 355">
  <g>
    <path d="M327.2,209.38c0-48.23,38.13-86.85,86.36-86.85s86.68,38.62,86.68,86.85c0,6.19-.65,12.38-1.47,18.57h-128.07c9.94,37.48,61.26,40.08,85.54,13.36l28.03,24.77c-54.26,58.66-157.07,26.56-157.07-56.7Zm129.05-16.13c-10.92-43.02-75.6-42.85-85.38,0h85.38Z"/>
    <path d="M687.29,125.79l-70.71,83.59,69.9,83.26h-52.79l-43.67-51.81-43.5,51.81h-52.79l70.06-83.1-70.06-83.75h52.79l43.83,52.14,43.67-52.14h53.28Z"/>
    <path d="M680.28,209.54c0-48.56,39.76-87.17,87.99-87.17s88.15,38.45,88.15,87.17-39.59,86.52-88.15,86.52-87.99-37.31-87.99-86.52Zm87.99,47.25c26.56,0,46.6-21.02,46.6-47.41s-20.2-47.74-46.6-47.74-46.6,21.67-46.6,47.74,20.04,47.41,46.6,47.41Z"/>
    <path d="M924.04,161.8c4.4-25.26,21.67-36.01,46.27-36.01h12.55v38.45h-25.26c-24.28,0-33.56,16.62-33.56,38.94v89.45h-41.55V125.79h41.55v36.01Z"/>
    <path d="M1065.79,295.57c-46.76,0-79.68-41.06-79.68-86.03s34.38-86.68,80-86.68c21.83,0,39.76,9.45,52.63,26.88v-23.95h41.55v166.85h-41.55v-24.44c-12.87,17.6-30.96,27.37-52.95,27.37Zm8.31-38.78c26.56,0,46.76-21.02,46.76-47.41s-20.37-47.74-46.76-47.74-46.44,21.67-46.44,47.74,19.88,47.41,46.44,47.41Z"/>
    <path d="M1333.5,58.98v41.55h-71.04v192.1h-43.99V100.53h-71.2V58.98h186.24Z"/>
    <path d="M1311.34,209.38c0-48.23,38.13-86.85,86.36-86.85s86.68,38.62,86.68,86.85c0,6.19-.65,12.38-1.47,18.57h-128.07c9.94,37.48,61.26,40.08,85.54,13.36l28.03,24.77c-54.26,58.66-157.07,26.56-157.07-56.7Zm129.05-16.13c-10.92-43.02-75.6-42.85-85.38,0h85.38Z"/>
    <path d="M1630.04,184.45c-22-40.08-86.36-24.6-86.36,24.93s61.92,65.34,87.33,23.3l32.75,21.67c-46.27,74.14-161.47,43.02-161.47-44.81,0-48.56,39.76-87.17,87.99-87.17,30.14,0,58.49,16.29,73.81,42.2l-34.05,19.88Z"/>
    <path d="M1732.2,152.84c7.82-19.72,27.05-29.65,47.58-29.65,43.02,0,58.17,39.1,58.17,76.25v93.2h-41.55v-92.87c0-20.69-9.45-38.13-32.1-38.13s-32.1,17.6-32.1,38.13v92.87h-41.55V58.98h41.55v93.85Z"/>
  </g>
  <path d="M250.3,227.19h-58.16c-2.94-.07-17.7-.73-29.46-12.85-11.21-11.54-11.89-25.44-11.96-28.57v-58.16c0-37.93-30.75-68.67-68.67-68.67h0V227.19h0c0,37.93,30.75,68.67,68.67,68.67h168.25c0-37.93-30.75-68.67-68.67-68.67Z"/>
</svg>